<svg xmlns="http://www.w3.org/2000/svg" xmlns:xlink="http://www.w3.org/1999/xlink" version="1.1" id="Layer_1" x="0px" y="0px" width="74.286px" height="100px" viewBox="14.358 142.499 74.286 100" enable-background="new 14.358 142.499 74.286 100" xml:space="preserve">
<path d="M88.644,177.856v48.929c0,3.69-14.643,15.714-14.643,15.714H29.239c0,0-14.881-12.023-14.881-15.714v-48.929  c0-1.19,0.953-2.024,2.024-2.024h12.976v-5.237c0-12.144,10-28.096,22.143-28.096c12.262,0,22.143,15.952,22.143,28.096v5.237H86.62  C87.691,175.832,88.644,176.666,88.644,177.856z M18.644,180.118v46.667h10.714v-46.667H18.644z M39.12,175.832h24.762v-13.571  c0-7.5-4.881-13.571-12.381-13.571s-12.381,6.071-12.381,13.571V175.832z M63.882,226.785v-46.667H39.12v46.667H63.882z   M73.644,180.118v46.667h10.715v-46.667H73.644z"/>
</svg>