<svg xmlns="http://www.w3.org/2000/svg" xmlns:xlink="http://www.w3.org/1999/xlink" version="1.1" id="Your_Icon" x="0px" y="0px" width="100px" height="100px" viewBox="0 0 100 100" enable-background="new 0 0 100 100" xml:space="preserve">
<path fill="#000000" d="M83.236,34.118C83.236,15.828,68.408,1,50.118,1C31.828,1,17,15.828,17,34.118  c0,17.155,13.043,31.262,29.752,32.948V82.74h-9.708v6.47h9.708v9.71h6.472v-9.71h9.967v-6.47h-9.967V67.087  C70.059,65.52,83.236,51.361,83.236,34.118z M23.352,34.118c0-14.784,11.983-26.767,26.767-26.767  c14.782,0,26.765,11.983,26.765,26.767c0,14.783-11.982,26.766-26.765,26.766C35.334,60.884,23.352,48.901,23.352,34.118z"/>
</svg>