<svg xmlns="http://www.w3.org/2000/svg" xmlns:xlink="http://www.w3.org/1999/xlink" version="1.1" x="0px" y="0px" width="100px" height="100px" viewBox="0 0 100 100" enable-background="new 0 0 100 100" xml:space="preserve">
<g id="Captions">
	<rect x="-192" width="185" height="99"/>
	<rect y="-36" width="100" height="30"/>
	<text transform="matrix(1 0 0 1 66 -19.5)" fill="#000000" font-family="'Helvetica'" font-size="2.4">http://thenounproject.com</text>
	<text transform="matrix(1 0 0 1 7.166 -24.5)"><tspan x="0" y="0" fill="#000000" font-family="'Helvetica-Bold'" font-size="6.1578">The Noun Project</tspan><tspan x="1.12" y="4.8" fill="#000000" font-family="'Helvetica-Bold'" font-size="4">Icon Template</tspan></text>
	<text transform="matrix(1 0 0 1 -178.5 10.5)" fill="#000000" font-family="'Helvetica-Bold'" font-size="6.1578">Reminders</text>
	<line fill="#000000" stroke="#FFFFFF" stroke-miterlimit="10" x1="8" y1="-14.5" x2="18" y2="-14.5"/>
	<line fill="#000000" stroke="#FFFFFF" stroke-miterlimit="10" x1="-179" y1="16.5" x2="-162" y2="16.5"/>
	<g>
		<g>
			<g>
				<rect x="-170.802" y="31.318" fill="#000000" width="8.721" height="8.642"/>
				<path fill="#000000" d="M-164.455,42.312h4.747v-4.703h-4.747V42.312z M-159.266,42.749h-5.63V37.17h5.63V42.749      L-159.266,42.749z M-166.221,44.062h8.279v-8.203h-8.279V44.062L-166.221,44.062z M-157.5,44.5h-9.163v-9.079h9.163V44.5      L-157.5,44.5z"/>
				<polygon fill="#000000" points="-166.149,44.133 -166.292,43.991 -158.013,35.787 -157.871,35.929     "/>
			</g>
		</g>
	</g>
	<rect x="-179" y="58" fill="none" width="35" height="32.5"/>
	<text transform="matrix(1 0 0 1 -179 60.1572)"><tspan x="0" y="0" fill="#000000" font-family="'Helvetica-Bold'" font-size="3">Strokes</tspan><tspan x="0" y="5" fill="#000000" font-family="'Helvetica'" font-size="2.4">Try to keep strokes at 4px</tspan><tspan x="0" y="10" fill="#000000" font-family="'Helvetica'" font-size="2.4">Minimum stroke weight is 2px</tspan><tspan x="0" y="14.5" fill="#000000" font-family="'Helvetica'" font-size="2.4">For thicker strokes use even </tspan><tspan x="0" y="17.5" fill="#000000" font-family="'Helvetica'" font-size="2.4">numbers: 6px, 8px etc.</tspan><tspan x="0" y="22" fill="#000000" font-family="'Helvetica-Bold'" font-size="2.4">Remember to expand strokes </tspan><tspan x="0" y="25" fill="#000000" font-family="'Helvetica-Bold'" font-size="2.4">before saving as an SVG </tspan></text>
	<rect x="-136.5" y="58" fill="none" width="35" height="32.5"/>
	<text transform="matrix(1 0 0 1 -136.5 60.1572)"><tspan x="0" y="0" fill="#000000" font-family="'Helvetica-Bold'" font-size="3">Size</tspan><tspan x="0" y="5" fill="#000000" font-family="'Helvetica'" font-size="2.4">Cannot be wider or taller than </tspan><tspan x="0" y="8.5" fill="#000000" font-family="'Helvetica'" font-size="2.4">100px (artboard size)</tspan><tspan x="0" y="13.5" fill="#000000" font-family="'Helvetica'" font-size="2.4">Scale your icon to fill as much of </tspan><tspan x="0" y="16.5" fill="#000000" font-family="'Helvetica'" font-size="2.4">the artboard as possible</tspan></text>
	<rect x="-94" y="58" fill="none" width="35" height="32.5"/>
	<text transform="matrix(1 0 0 1 -94 60.1572)"><tspan x="0" y="0" fill="#000000" font-family="'Helvetica-Bold'" font-size="3">Ungroup</tspan><tspan x="0" y="5" fill="#000000" font-family="'Helvetica'" font-size="2.4">If your design has more than one </tspan><tspan x="0" y="8" fill="#000000" font-family="'Helvetica'" font-size="2.4">shape, make sure to ungroup</tspan></text>
	<rect x="-50" y="58" fill="none" width="35" height="32.5"/>
	<text transform="matrix(1 0 0 1 -50 60.1572)"><tspan x="0" y="0" fill="#000000" font-family="'Helvetica-Bold'" font-size="3">Save as</tspan><tspan x="0" y="5" fill="#000000" font-family="'Helvetica'" font-size="2.4">Save as .SVG and make sure </tspan><tspan x="0" y="8" fill="#000000" font-family="'Helvetica'" font-size="2.4">&#8220;Use Artboards&#8221; is checked</tspan></text>
	<text transform="matrix(1.0074 0 0 1 -125.542 30.5933)" fill="#000000" font-family="'Helvetica'" font-size="2.5731">100px</text>
	<text transform="matrix(1.0074 0 0 1 -41 39)" fill="#000000" font-family="'Helvetica-Bold'" font-size="5.1462">.SVG</text>
	<rect x="-126.514" y="34.815" fill="#000000" width="10.261" height="10.185"/>
	<rect x="-126.477" y="31.766" fill="#000000" width="0.522" height="2.337"/>
	<rect x="-116.812" y="31.766" fill="#000000" width="0.523" height="2.337"/>
	<rect x="-127" y="32.337" fill="#000000" width="11.233" height="0.572"/>
	<g>
		<rect x="-83.805" y="33.844" fill="#000000" width="10.305" height="10.156"/>
		<rect x="-76.809" y="28.707" fill="#000000" width="3.308" height="3.261"/>
	</g>
	<rect x="-178.5" y="22.5" fill="#000000" stroke="#FFFFFF" stroke-miterlimit="10" width="30" height="30"/>
	<rect x="-136.5" y="22.5" fill="#000000" stroke="#FFFFFF" stroke-miterlimit="10" width="30" height="30"/>
	<rect x="-93.5" y="22.5" fill="#000000" stroke="#FFFFFF" stroke-miterlimit="10" width="30" height="30"/>
	<rect x="-49.5" y="22.5" fill="#000000" stroke="#FFFFFF" stroke-miterlimit="10" width="30" height="30"/>
</g>
<g id="Your_Icon">
	<path d="M25.839,86.738c-0.278,0-0.557-0.053-0.819-0.155c-0.268-0.104-2.625-1.087-3.432-3.498   c-0.365-1.099-0.521-2.868,0.823-5.054l1.579-2.566c0.281-0.457,0.721-0.8,1.23-0.964l1.125-0.356l-1.135-4.787   c-0.141-0.586-0.038-1.205,0.281-1.715c0.322-0.513,0.835-0.873,1.424-1.002l4.957-1.093l0.003-3.592   c0-0.388,0.103-0.771,0.293-1.106l3.451-6.082c-2.271-4.302-2.136-9.558,0.438-13.758c1.799-2.922,4.588-5.055,7.875-6.027   c0.517-0.219,1.576-0.553,2.698-0.277c1.204,0.305,1.935,1.529,1.632,2.732c-0.305,1.207-1.543,1.938-2.732,1.633   c-2.473,0.835-4.403,2.291-5.637,4.295c-1.91,3.113-1.832,7.09,0.195,10.125c0.475,0.706,0.508,1.619,0.088,2.361l-3.803,6.703   l-0.006,4.805c0,1.055-0.735,1.966-1.768,2.193l-4.488,0.99l1.091,4.591c0.272,1.144-0.384,2.306-1.503,2.663l-2.317,0.738   l-1.143,1.854c-0.331,0.536-0.472,0.996-0.39,1.26c0.049,0.158,0.188,0.313,0.342,0.442l4.293-1.02l13.852-22.494   c0.469-0.759,1.352-1.181,2.225-1.05c2.804,0.398,5.568-0.485,7.635-2.387l0,0c-0.01,0,0.472-0.545,0.677-1.324   c0.319-1.205,1.563-1.916,2.748-1.605c1.201,0.316,1.922,1.547,1.604,2.748c-0.526,2.01-1.771,3.287-1.912,3.428   c-2.746,2.528-6.291,3.803-9.867,3.728L33.83,84.227c-0.312,0.508-0.814,0.871-1.396,1.008l-6.076,1.441   C26.188,86.718,26.012,86.738,25.839,86.738z"/>
	<path d="M36.157,50.721c-0.202,0-0.41-0.025-0.615-0.084c-0.92-0.262-2.531-0.842-3.533-1.318   c-4.78-2.215-8.429-6.182-10.248-11.156c-1.815-4.967-1.588-10.342,0.646-15.135c2.229-4.805,6.199-8.455,11.177-10.274   c4.978-1.812,10.349-1.585,15.129,0.646c4.806,2.229,8.452,6.199,10.269,11.18c1.816,4.966,1.586,10.339-0.645,15.123   c-0.523,1.131-1.865,1.613-2.988,1.09c-1.127-0.523-1.613-1.863-1.09-2.988c1.723-3.697,1.898-7.846,0.498-11.681   c-1.406-3.851-4.229-6.92-7.939-8.644c-3.699-1.723-7.849-1.903-11.687-0.498c-3.851,1.406-6.92,4.229-8.644,7.942   c-1.725,3.706-1.9,7.856-0.497,11.695c1.403,3.844,4.225,6.907,7.938,8.628c0.756,0.363,2.115,0.855,2.846,1.061   c1.194,0.34,1.89,1.586,1.55,2.78C38.041,50.076,37.139,50.721,36.157,50.721z"/>
	<path d="M72.104,88.458c-2.537,0-4.566-1.603-5.574-4.392l-1.135-3.123c-0.185-0.508-0.179-1.066,0.016-1.573l0.545-1.427   l-5.139-2.414c-0.549-0.256-0.971-0.721-1.17-1.293c-0.198-0.57-0.16-1.194,0.105-1.736l2.568-5.218l-3.26-2.597   c-0.309-0.242-0.545-0.562-0.688-0.926l-2.921-7.314c-5.271-0.943-9.721-4.645-11.562-9.735   c-2.824-7.834,1.247-16.497,9.072-19.317c1.648-0.596,3.372-0.896,5.115-0.896c6.343,0,12.05,4.005,14.203,9.97   c1.854,5.156,0.759,10.878-2.764,14.974l9.801,27.183c0.205,0.562,0.176,1.181-0.08,1.72l-2.938,6.262   c-0.195,0.418-0.513,0.765-0.914,0.996C75.137,87.74,73.805,88.458,72.104,88.458z M69.913,80.195l0.851,2.342   c0.512,1.421,1.092,1.421,1.342,1.421c0.17,0,0.343-0.028,0.498-0.067l2.168-4.619l-9.955-27.606   c-0.306-0.841-0.082-1.778,0.562-2.394c3.041-2.9,4.09-7.328,2.669-11.279c-1.512-4.184-5.518-6.996-9.97-6.996   c-1.222,0-2.429,0.211-3.589,0.63c-5.493,1.979-8.348,8.06-6.366,13.56c1.405,3.888,4.983,6.621,9.114,6.963   c0.85,0.07,1.588,0.615,1.904,1.406l3.189,7.983l4.21,3.354c0.829,0.658,1.084,1.805,0.618,2.754l-2.355,4.783l4.957,2.329   c1.069,0.501,1.567,1.74,1.146,2.843L69.913,80.195z"/>
	<path d="M56.766,42.219c-1.693,0-3.215-1.068-3.785-2.662c-0.744-2.068,0.334-4.369,2.404-5.125c2.03-0.727,4.424,0.391,5.15,2.426   c0.359,0.984,0.312,2.072-0.139,3.041c-0.453,0.974-1.256,1.711-2.262,2.08C57.682,42.141,57.229,42.219,56.766,42.219z    M56.766,37.719c-0.054,0-0.105,0.01-0.152,0.023c-0.141,0.053-0.24,0.145-0.297,0.258c-0.053,0.12-0.059,0.261-0.012,0.387   c0.047,0.133,0.196,0.305,0.448,0.305c0.429-0.123,0.554-0.397,0.463-0.655C57.157,37.877,56.996,37.719,56.766,37.719z"/>
</g>
</svg>